<svg xmlns="http://www.w3.org/2000/svg" viewBox="0 0 202.16 207.37"><defs><style>.cls-1{fill:#fff;}</style></defs><g id="Layer_2" data-name="Layer 2"><g id="Layer_1-2" data-name="Layer 1"><path class="cls-1" d="M189.93,53.62a102.15,102.15,0,0,0-21.3-27.78,21.09,21.09,0,1,0-36.8,8.71c-8.46,10.93-22,21.87-42.15,21.87-15.39,0-30.42-7.67-41.24-21.05a15.18,15.18,0,0,0-11.83-5.7,15.46,15.46,0,0,0-11,4.65,15,15,0,0,0-4.22,11,90.4,90.4,0,0,0,3.54,23.17A15,15,0,0,0,15.3,65,15.36,15.36,0,0,0,3.6,70.4,14.92,14.92,0,0,0,.2,82.62a93.67,93.67,0,0,0,16.6,40.6c-.36,0-.73,0-1.09,0A15.24,15.24,0,0,0,1.85,144.65c7.55,16.92,18.08,30.79,31.28,41.22,18.07,14.26,40.56,21.5,66.83,21.5a98.29,98.29,0,0,0,75.48-34.67c16.73-19.41,26.72-45.53,26.72-69.9A104.35,104.35,0,0,0,189.93,53.62ZM100,200.07c-55.25,0-80.42-33.68-91.45-58.39a7.92,7.92,0,0,1,10.78-10.33,78.2,78.2,0,0,0,23.4,7.3A85.07,85.07,0,0,1,7.4,81.48a7.93,7.93,0,0,1,13.39-6.89,57.57,57.57,0,0,0,22.46,14C32.26,74.62,29,58.36,28.64,45.11A7.93,7.93,0,0,1,42.77,40c10.67,13.18,27,23.75,46.91,23.75,27.46,0,43.82-17.82,52-30.41A13.81,13.81,0,1,1,160,28.07c16.15,12.69,34.89,39.61,34.89,74.73C194.87,146.79,160,200.07,100,200.07ZM73.48,121.6c-49.56,0-59.83-33.57-59.83-42v-.09a2.12,2.12,0,0,1,3.81-1.28c6.23,8.23,21.27,21.45,53.61,21.45,34.21,0,57.37-20.51,69.13-40.17.57-1,1.11-1.93,1.62-2.9a3.32,3.32,0,0,1,6.26,1.53C148.08,81,122.17,121.6,73.48,121.6Zm104-28.7c0,46.72-37.33,87.2-91.1,87.2-49.85,0-67.61-29-73-41.61a2,2,0,0,1,2.8-2.47c6.62,3.85,19.88,9.8,38.81,9.8,64.3,0,99.68-50.55,99.68-98.7a4.73,4.73,0,0,1,8.73-2.63A91,91,0,0,1,177.48,92.9Zm-141.65-46A19.67,19.67,0,0,1,36,44.55,2,2,0,0,1,39.69,44C45.21,55.88,66.9,69.81,88.2,69.81c18,0,29.72-5.39,37.13-11.27a3.2,3.2,0,0,1,4.71,4.2c-6.81,11.14-20.87,22.84-42.29,22.84C47.87,85.58,35.83,56.37,35.83,46.93Z"/></g></g></svg>