<svg width="20" height="20" viewBox="0 0 20 20" fill="none" xmlns="http://www.w3.org/2000/svg">
<g clip-path="url(#clip0_1114_1110)">
<path fill-rule="evenodd" clip-rule="evenodd" d="M6.56189 9.90476L9.66666 15.8286L12.6857 9.91429C12.5809 9.8381 12.4857 9.7619 12.4 9.67619C11.6 10.181 10.6381 10.4762 9.61904 10.4762C8.59999 10.4762 7.63808 10.181 6.83809 9.67619C6.75237 9.7619 6.65713 9.83809 6.56189 9.90476ZM4.69523 10.4667C3.19047 10.381 1.99999 9.14286 1.99999 7.61905C1.99999 6.2 3.03809 5.01905 4.39999 4.8C4.61904 2.11429 6.87618 0 9.61904 0C12.3619 0 14.619 2.11429 14.8381 4.8C16.2 5.01905 17.2381 6.2 17.2381 7.61905C17.2381 9.13333 16.0571 10.381 14.5619 10.4667L9.6857 20L4.69523 10.4667Z" fill="#615c5a"/>
</g>
<defs>
<clipPath id="clip0_1114_1110">
<rect width="20" height="20" fill="transparent"/>
</clipPath>
</defs>
</svg>
