<svg width="20" height="20" viewBox="0 0 20 20" fill="none" xmlns="http://www.w3.org/2000/svg">
<g clip-path="url(#clip0_1114_1115)">
<path d="M20 9H15.83L19.07 5.76L17.66 4.34L13 9H11V7L15.66 2.34L14.24 0.93L11 4.17V0H9.00001V4.17L5.76001 0.93L4.34001 2.34L9.00001 7V9H7.00001L2.34001 4.34L0.930008 5.76L4.17001 9H7.62939e-06V11H4.17001L0.930008 14.24L2.34001 15.66L7.00001 11H9.00001V13L4.34001 17.66L5.76001 19.07L9.00001 15.83V20H11V15.83L14.24 19.07L15.66 17.66L11 13V11H13L17.66 15.66L19.07 14.24L15.83 11H20V9Z" fill="#615c5a"/>
</g>
<defs>
<clipPath id="clip0_1114_1115">
<rect width="20" height="20" fill="transparent"/>
</clipPath>
</defs>
</svg>
