<svg width="20" height="20" viewBox="0 0 20 20" fill="none" xmlns="http://www.w3.org/2000/svg">
<g clip-path="url(#clip0_1114_1104)">
<path fill-rule="evenodd" clip-rule="evenodd" d="M18 1H2C0.9 1 0 1.9 0 3V17C0 18.1 0.9 19 2 19H18C19.1 19 20 18.1 20 17V3C20 1.9 19.1 1 18 1ZM8 15H3V13H8V15ZM8 11H3V9H8V11ZM8 7H3V5H8V7ZM12.82 13L10 10.16L11.41 8.75L12.82 10.17L15.99 7L17.41 8.42L12.82 13Z" fill="#615c5a"/>
</g>
<defs>s
<clipPath id="clip0_1114_1104">
<rect width="20" height="20" fill="transparent"/>
</clipPath>
</defs>
</svg>
