<svg width="20" height="20" viewBox="0 0 20 20" fill="none" xmlns="http://www.w3.org/2000/svg">
<g clip-path="url(#clip0_1114_1111)">
<path d="M14 9V3H18C19.1 3 20 3.9 20 5V9H14ZM18 17C19.1 17 20 16.1 20 15V11H14V17H18ZM12 3V17H2.00001C0.90001 17 1.04904e-05 16.1 1.04904e-05 15V5C1.04904e-05 3.9 0.90001 3 2.00001 3H12ZM7.50001 10C7.50001 9.17 6.83001 8.5 6.00001 8.5C5.17001 8.5 4.50001 9.17 4.50001 10C4.50001 10.83 5.17001 11.5 6.00001 11.5C6.83001 11.5 7.50001 10.83 7.50001 10Z" fill="#615c5a"/>
</g>
<defs>
<clipPath id="clip0_1114_1111">
<rect width="20" height="20" fill="transparent"/>
</clipPath>
</defs>
</svg>
