<svg width="20" height="20" viewBox="0 0 20 20" fill="none" xmlns="http://www.w3.org/2000/svg">
<g clip-path="url(#clip0_1114_1112)">
<path d="M9.99001 0C4.47001 0 9.53674e-06 4.48 9.53674e-06 10C9.53674e-06 15.52 4.47001 20 9.99001 20C15.52 20 20 15.52 20 10C20 4.48 15.52 0 9.99001 0ZM6.50001 6C7.33001 6 8.00001 6.67 8.00001 7.5C8.00001 8.33 7.33001 9 6.50001 9C5.67001 9 5.00001 8.33 5.00001 7.5C5.00001 6.67 5.67001 6 6.50001 6ZM10 16C7.72001 16 5.78001 14.34 5.00001 12H15C14.22 14.34 12.28 16 10 16ZM13.5 9C12.67 9 12 8.33 12 7.5C12 6.67 12.67 6 13.5 6C14.33 6 15 6.67 15 7.5C15 8.33 14.33 9 13.5 9Z" fill="#615c5a"/>
</g>
<defs>
<clipPath id="clip0_1114_1112">
<rect width="20" height="20" fill="transparent"/>
</clipPath>
</defs>
</svg>
