<svg width="20" height="20" viewBox="0 0 20 20" fill="none" xmlns="http://www.w3.org/2000/svg">
<g clip-path="url(#clip0_1114_1107)">
<path fill-rule="evenodd" clip-rule="evenodd" d="M6.77806 7.41217H0.642673C0.472226 7.41217 0.308759 7.34446 0.188235 7.22393C0.06771 7.10341 0 6.93994 0 6.7695C0 6.59905 0.06771 6.43558 0.188235 6.31506C0.308759 6.19453 0.472226 6.12682 0.642673 6.12682H5.14139L1.78235 3.12768C1.67314 3.01002 1.61192 2.85576 1.61073 2.69524C1.60954 2.53472 1.66846 2.37957 1.7759 2.2603C1.88335 2.14104 2.03154 2.0663 2.19131 2.0508C2.35108 2.03529 2.51087 2.08014 2.63925 2.17652L6.06684 5.31277V0.642674C6.06684 0.472226 6.13455 0.308759 6.25507 0.188235C6.3756 0.06771 6.53906 0 6.70951 0C6.87996 0 7.04343 0.06771 7.16395 0.188235C7.28447 0.308759 7.35218 0.472226 7.35218 0.642674V6.83805V6.93231C7.35514 6.97796 7.35514 7.02376 7.35218 7.06941C7.3326 7.11118 7.30968 7.1513 7.28363 7.18937C7.26952 7.21698 7.25227 7.24285 7.23222 7.2665C7.19585 7.29982 7.15557 7.32859 7.11225 7.35219L7.02656 7.41217H6.92374C6.8753 7.41698 6.8265 7.41698 6.77806 7.41217ZM17.9949 7.9006H11.7823C11.3983 7.9006 11.0299 8.05317 10.7583 8.32476C10.4868 8.59634 10.3342 8.96468 10.3342 9.34876V10.0771H19.4087V9.34876C19.4088 8.97055 19.261 8.6073 18.9968 8.33669C18.7326 8.06607 18.373 7.90955 17.9949 7.9006ZM0.507339 19.5784C0.237364 19.3084 0.0856934 18.9422 0.0856934 18.5604V8.81748H9.15167V18.5604C9.15167 18.9422 9 19.3084 8.73003 19.5784C8.46005 19.8483 8.09389 20 7.71209 20H1.52528C1.14348 20 0.777314 19.8483 0.507339 19.5784ZM10.7614 19.5789C10.49 19.3091 10.3365 18.943 10.3342 18.5604V11.3882H19.443V18.5604C19.4408 18.943 19.2872 19.3091 19.0158 19.5789C18.7445 19.8486 18.3775 20 17.9949 20H11.7823C11.3998 20 11.0327 19.8486 10.7614 19.5789Z" fill="#615c5a"/>
</g>
<defs>
<clipPath id="clip0_1114_1107">
<rect width="20" height="20" fill="transparent"/>
</clipPath>
</defs>
</svg>
