<?xml version="1.0" encoding="utf-8"?>
<!-- Generator: Adobe Illustrator 25.1.0, SVG Export Plug-In . SVG Version: 6.00 Build 0)  -->
<svg version="1.1" id="Layer_1" xmlns="http://www.w3.org/2000/svg" xmlns:xlink="http://www.w3.org/1999/xlink" x="0px" y="0px"
	 viewBox="0 0 488.8 118.1" style="enable-background:new 0 0 488.8 118.1;" xml:space="preserve">
<style type="text/css">
	.st0{fill:#000000;}
	.st1{fill:#1B1B1B;}
	.st2{fill:#FFBC2E;}
	.st3{fill:#FFDD2E;}
	.st4{fill:#FF9614;}
</style>
<g id="Layer_2_1_">
	<g id="Layer_1-2">
		<path class="st0" d="M137.9,13.4L106.1,92h15.4l4.8-12.2H165l4.8,12.2h15.4l-31.7-78.6l-1.7-4.1h-12.3L137.9,13.4z M160.2,67.8
			h-29l14.5-36.7L160.2,67.8z"/>
		<path class="st0" d="M438.6,55.8c0-5.6,5.7-14.4,14.2-14.4c2.4,0,4.8,0.5,6.9,1.6V29.8c-0.8-0.2-1.6-0.3-2.3-0.3
			c-12.7,0-18.8,7.9-18.8,7.9V31h-14.5v61h14.5V55.8z"/>
		<path class="st0" d="M204.1,54.6c0-5.5,5.3-13.1,13.9-13.1c7.2,0,9.9,5.9,9.9,13.4V92h14.5V52.5c0-13.1-6.4-23.3-19.5-23.3
			c-12.7,0-18.8,8.3-18.8,8.3V31h-14.5v61h14.5V54.6z"/>
		<path class="st0" d="M342.6,92c10.4-3.1,15.8-11.6,17.4-22.3h-14.7c-1.6,6.7-5.5,11.4-12.5,11.4c-9.7,0-13.4-8.8-13.4-19.6
			s3.7-19.6,13.4-19.6c7.1,0,10.9,4.7,12.5,11.4H360c-2.2-13.6-10.3-23.7-27.2-23.7c-20.2,0-27.9,14.3-27.9,31.9
			c0,14.4,5.1,26.6,18.1,30.6C329.4,93.8,336.1,93.8,342.6,92L342.6,92z"/>
		<path class="st0" d="M264.9,102.1c-0.9,2.4-3.2,4-5.7,4h-5.4v12.1h10.6c4.5,0,8.5-2.7,10.2-6.8l2.1-5.2l5.7-14L307,31h-15.2
			l-16.2,43l-17.4-43h-15.6l24.6,61l0.8,1.9L264.9,102.1z"/>
		<path class="st0" d="M393.1,92c3.8-1.2,7.2-3.5,9.8-6.6V92h14.5V51.5c0-4.1-1.4-22-24.4-22c-21.9,0-24.5,20.3-24.5,20.3h14.2
			c0-11.2,20.2-10.5,20.2-2c0,12.5-38,2.2-38,25.4c0,8.3,4.5,15.9,12.1,18.9c2.4,0.9,4.9,1.4,7.5,1.4C387.4,93.4,390.4,93,393.1,92z
			 M402.9,61v5.6c0,15.1-23.8,19.9-23.8,7.9C379.1,65.5,392.2,66.7,402.9,61z"/>
		<path class="st0" d="M464.4,80.5c0,6.3,5.2,11.5,11.5,11.5h13V79.9h-5.6c-2.4,0-4.4-2-4.4-4.4V43.2h10V31h-10V15.8h-14.5V80.5z"/>
		<path class="st0" d="M48.8,101.2c-12.8,0-23.8-3.5-32.6-10.5C9.5,85.3,4.3,78.4,0.9,70.6c-1.7-3.8,0-8.2,3.8-9.8
			c0.9-0.4,2-0.6,3-0.6h0.5c-4.2-5.9-7-12.6-8.1-19.8c-0.4-2.1,0.2-4.3,1.6-6c1.4-1.7,3.5-2.6,5.7-2.6c1.7,0,3.4,0.6,4.7,1.7
			c-1.1-3.7-1.6-7.5-1.7-11.3c-0.1-2,0.7-3.9,2.1-5.4c1.4-1.4,3.4-2.3,5.4-2.3c2.2,0,4.4,1,5.8,2.8c5.3,6.5,12.6,10.3,20.1,10.3
			c9.8,0,16.4-5.3,20.6-10.7c-3.6-4.4-3-10.9,1.4-14.5s10.9-3,14.5,1.4c1.5,1.8,2.4,4.2,2.4,6.6c0,0.8-0.1,1.6-0.3,2.3
			c4.2,3.9,7.7,8.5,10.4,13.5c3.9,7.4,6,15.6,6,24c0,11.9-4.9,24.6-13,34.1C76.5,95.1,63,101.3,48.8,101.2z"/>
		<path class="st1" d="M78,13.7c0.6-1,0.9-2.2,0.9-3.4c0-3.7-3-6.7-6.7-6.7c-3.7,0-6.7,3-6.7,6.7c0,2.5,1.4,4.8,3.6,6
			c-4,6.1-12,14.8-25.3,14.8c-9.7,0-17.7-5.2-22.9-11.6c-1.4-1.6-3.8-1.8-5.5-0.5c-0.9,0.7-1.4,1.8-1.4,3c0.2,6.5,1.8,14.4,7.1,21.2
			c-4.1-1.4-7.9-3.7-11-6.8c-1.5-1.5-4-1.5-5.5,0.1c-0.9,0.9-1.2,2.1-1.1,3.3C5.3,51,11.5,61.1,20.8,67.6c-4-0.6-7.8-1.8-11.4-3.6
			c-1.9-1-4.2-0.2-5.2,1.7c-0.5,1-0.5,2.2-0.1,3.3c5.4,12.1,17.7,28.5,44.6,28.5c29.3,0,46.3-26,46.3-47.5
			C95.1,33,85.9,19.9,78,13.7z"/>
		<path class="st2" d="M34.7,48.7c-15.8,0-23.1-6.5-26.1-10.5c-0.3-0.5-0.9-0.6-1.4-0.4c-0.4,0.2-0.6,0.6-0.5,1l0,0
			c0,4.1,5,20.5,29.2,20.5c23.8,0,36.4-19.8,36.4-30.9l0,0c0-0.9-0.7-1.6-1.6-1.6c-0.6,0-1.2,0.3-1.4,0.9c-0.2,0.5-0.5,0.9-0.8,1.4
			C62.7,38.6,51.4,48.7,34.7,48.7z"/>
		<path class="st3" d="M75.5,23c0-1.3,1-2.3,2.3-2.4c0.8,0,1.6,0.4,2,1.1c4.5,7.1,6.8,15.3,6.8,23.6c0,22.8-18.2,42.5-44.4,42.5
			c-24.3,0-33-14.2-35.6-20.3c-0.2-0.5,0.1-1.1,0.7-1.3c0.2-0.1,0.5-0.1,0.7,0c5.8,3.2,12.3,4.9,18.9,4.8
			C58.2,71.1,75.5,46.5,75.5,23z"/>
		<path class="st4" d="M19.4,21.5c-0.3-0.5-0.9-0.6-1.4-0.3c-0.2,0.1-0.4,0.3-0.4,0.6c0,0.4-0.1,0.8-0.1,1.2
			c0,4.6,5.9,18.9,25.3,18.9c8.4,0.2,16.2-4,20.6-11.1c0.5-0.7,0.3-1.7-0.5-2.2c-0.6-0.4-1.3-0.3-1.8,0.1c-3.6,2.9-9.3,5.5-18.1,5.5
			C32.6,34.1,22,27.3,19.4,21.5z"/>
	</g>
</g>
</svg>
