<?xml version="1.0" encoding="UTF-8"?>
<svg width="109px" height="104px" viewBox="0 0 109 104" version="1.1" xmlns="http://www.w3.org/2000/svg" xmlns:xlink="http://www.w3.org/1999/xlink">
    <!-- Generator: Sketch 53.2 (72643) - https://sketchapp.com -->
    <title>Artboard</title>
    <desc>Created with Sketch.</desc>
    <g id="Artboard" stroke="none" stroke-width="1" fill="none" fill-rule="evenodd">
        <path d="M57.2424062,80.6593168 C57.2424062,62.8325242 30.7498116,61.2231609 30.7498116,35.8447409 C30.7498116,17.6465567 44.8626891,8.60936322 58.9755666,7.12379717 C57.6137977,7.12379717 56.2520288,7 54.3950713,7 C50.9287505,7 49.3193873,7.12379717 46.4720523,7.24759434 C20.1032549,8.48556605 6.11417454,22.5984436 5.24759434,44.2629485 C5.24759434,45.6247174 5,48.1006608 5,51.9383731 L5,51.9383731 C5,55.7760854 5.12379717,58.1282317 5.24759434,59.6137977 C6.11417454,80.6593168 19.484269,94.6483971 44.4912976,96.5053547 C48.4528071,95.7625717 57.2424062,92.7914396 57.2424062,80.6593168 Z M103.666345,44.2629485 C102.799765,23.7126181 90.1724537,9.97113211 66.4033969,7.49518868 C62.194293,8.36176888 53.8998826,11.4566982 53.8998826,23.3412266 C53.8998826,41.1680192 80.3924772,42.7773824 80.3924772,68.1558025 C80.3924772,84.0018404 68.3841516,95.5149773 50.4335618,96.8767462 C51.5477363,96.8767462 52.785708,97.0005434 54.3950713,97.0005434 C57.8613921,97.0005434 59.4707553,96.8767462 62.3180902,96.752949 C88.6868877,95.5149773 102.675968,81.4020998 103.666345,59.7375949 C103.666345,58.375826 103.790143,55.8998826 103.790143,52.0621703 L103.790143,52.0621703 C103.91394,48.1006608 103.790143,45.7485146 103.666345,44.2629485 Z" id="Shape" fill="#D6232A" fill-rule="nonzero"></path>
    </g>
</svg>