<svg width="20" height="20" viewBox="0 0 20 20" fill="none" xmlns="http://www.w3.org/2000/svg">
<g clip-path="url(#clip0_1114_1185)">
<path d="M13.49 7.63C13.31 4.84 12.18 2.12 10.06 0C7.92001 2.14 6.74001 4.86 6.51001 7.63C7.79001 8.31 8.97001 9.19 10 10.26C11.03 9.2 12.21 8.32 13.49 7.63V7.63ZM6.99001 10.28C6.85001 10.18 6.69001 10.09 6.54001 9.99C6.69001 10.1 6.85001 10.18 6.99001 10.28ZM13.41 10.03C13.28 10.12 13.14 10.19 13.01 10.29C13.14 10.19 13.28 10.12 13.41 10.03ZM10 13.45C7.85001 10.17 4.18001 8 7.62939e-06 8C7.62939e-06 13.32 3.36001 17.82 8.03001 19.49C8.66001 19.72 9.32001 19.89 10 20C10.68 19.88 11.33 19.71 11.97 19.49C16.64 17.82 20 13.32 20 8C15.82 8 12.15 10.17 10 13.45Z" fill="#615c5a"/>
</g>
<defs>
<clipPath id="clip0_1114_1185">
<rect width="20" height="20" fill="transparent"/>
</clipPath>
</defs>
</svg>
