<svg xmlns="http://www.w3.org/2000/svg" viewBox="0 0 22.69 24.23"><g id="Layer_2" data-name="Layer 2"><g id="Layer_1-2" data-name="Layer 1"><path class="cls-1" d="M10.24,7.54c0,.1,0,.2,0,.3A1.16,1.16,0,0,1,9.08,8.91h0A1.16,1.16,0,0,1,7.93,7.76V0H5.12V7.76A1.15,1.15,0,0,1,4,8.91H4A1.16,1.16,0,0,1,2.83,7.84c0-.1,0-.2,0-.3V0H0V7.54a6.54,6.54,0,0,0,5.12,6.37V24.23H7.93V13.91a6.53,6.53,0,0,0,5.12-6.37V0H10.24Z" fill="#AAA29A"/><path class="cls-1" d="M20.68,0A4.76,4.76,0,0,0,18.1.69a4.86,4.86,0,0,0-2.26,4.08v11.5h4v8h2.81V0Z" fill="#AAA29A"/></g></g></svg>
