<svg width="20" height="20" viewBox="0 0 20 20" fill="none" xmlns="http://www.w3.org/2000/svg">
<path fill-rule="evenodd" clip-rule="evenodd" d="M4.38319 2.40672C4.38546 2.86384 4.48563 3.31516 4.67697 3.7303C4.86831 4.14545 5.14637 4.51479 5.49244 4.81345C5.83813 4.51493 6.11546 4.14546 6.30556 3.73015C6.49565 3.31485 6.59405 2.86346 6.59405 2.40672C6.59405 1.94998 6.49565 1.4986 6.30556 1.08329C6.11546 0.66799 5.83813 0.29851 5.49244 0C5.14637 0.298658 4.86831 0.667993 4.67697 1.08314C4.48563 1.49829 4.38546 1.94961 4.38319 2.40672ZM5.49243 6.05042C4.72754 6.05042 3.99397 6.35428 3.45311 6.89514C2.91225 7.436 2.6084 8.16956 2.6084 8.93446C2.6084 13.8824 4.65882 19.9866 5.49243 19.9866C6.32605 19.9866 8.36974 13.8824 8.36974 8.93446C8.36975 8.17073 8.06682 7.43818 7.52741 6.89751C6.988 6.35684 6.25616 6.0522 5.49243 6.05042ZM14.2122 6.34625C14.4094 5.81384 14.7188 5.33007 15.1193 4.92773C15.5245 4.53106 16.0087 4.22426 16.5403 4.02734C17.072 3.83041 17.6393 3.7478 18.205 3.78487C18.2484 4.35123 18.1687 4.92027 17.9715 5.45297C17.7744 5.98567 17.4643 6.46942 17.0627 6.87107C16.661 7.27272 16.1773 7.58277 15.6446 7.77995C15.1119 7.97713 14.5428 8.05678 13.9765 8.01344C13.9346 7.44724 14.015 6.87865 14.2122 6.34625ZM2.40672 4.03362C2.8628 4.03421 3.31349 4.13229 3.72857 4.32128C4.14365 4.51027 4.51354 4.7858 4.81345 5.12941C4.51493 5.47511 4.14546 5.75244 3.73015 5.94253C3.31485 6.13263 2.86346 6.23102 2.40672 6.23102C1.94998 6.23102 1.4986 6.13263 1.08329 5.94253C0.66799 5.75244 0.29851 5.47511 0 5.12941C0.299902 4.7858 0.669791 4.51027 1.08487 4.32128C1.49996 4.13229 1.95064 4.03421 2.40672 4.03362ZM19.6303 14.5613C19.6303 17.565 17.1953 20 14.1916 20C11.1879 20 8.75294 17.565 8.75294 14.5613C8.75294 11.5577 11.1879 9.12269 14.1916 9.12269C17.1953 9.12269 19.6303 11.5577 19.6303 14.5613Z" fill="#615c5a"/>
</svg>
