<svg width="20" height="20" viewBox="0 0 20 20" fill="none" xmlns="http://www.w3.org/2000/svg">
<g clip-path="url(#clip0_1114_1109)">
<path fill-rule="evenodd" clip-rule="evenodd" d="M5.95122 9.40132L5.54954 9.46969C4.96807 9.5845 4.428 9.85306 3.98555 10.2474C3.68995 10.5146 3.50048 10.8794 3.45183 11.2749C3.40317 11.6704 3.49859 12.0702 3.72061 12.4011C3.73295 12.4185 3.74175 12.4382 3.7465 12.4589C3.75125 12.4797 3.75186 12.5013 3.74829 12.5223C3.74471 12.5433 3.73704 12.5635 3.72569 12.5815C3.71434 12.5996 3.69955 12.6152 3.68215 12.6276C3.66475 12.6399 3.6451 12.6487 3.6243 12.6535C3.6035 12.6582 3.58198 12.6588 3.56095 12.6553C3.53992 12.6517 3.51979 12.644 3.50173 12.6327C3.48367 12.6213 3.46802 12.6065 3.45567 12.5891L1.74639 10.8798L0.0371158 9.17056C0.0145216 9.14317 0.00152864 9.10913 0.000126678 9.07365C-0.00127528 9.03817 0.00899104 9.00321 0.0293534 8.97412C0.0497158 8.94503 0.0790517 8.92342 0.112869 8.91259C0.146686 8.90176 0.183119 8.90232 0.21659 8.91417C0.551692 9.12509 0.949627 9.21313 1.34243 9.16325C1.73523 9.11337 2.09853 8.92867 2.37028 8.64069C2.77257 8.20353 3.05002 7.66633 3.17364 7.08525C3.18056 7.03336 3.19308 6.98288 3.20553 6.93266C3.22384 6.8588 3.24201 6.78552 3.24201 6.7092C3.24368 6.6893 3.24368 6.66929 3.24201 6.64938C3.63272 5.08228 4.44905 3.65369 5.60081 2.52147C6.4659 1.57607 7.55164 0.859621 8.76109 0.43609C9.97053 0.0125589 11.266 -0.104866 12.5319 0.0942997C12.732 1.36429 12.6133 2.66409 12.1867 3.87688C11.7601 5.08968 11.0388 6.17747 10.0877 7.04251C8.95531 8.19851 7.52273 9.01544 5.95122 9.40132ZM10.4463 1.25649C10.3621 1.29507 10.2866 1.35035 10.2244 1.41899C10.0965 1.54716 10.0247 1.72082 10.0247 1.90186C10.0247 2.08291 10.0965 2.25656 10.2244 2.38473C10.2873 2.44908 10.3624 2.50021 10.4453 2.53511C10.5282 2.57002 10.6173 2.588 10.7073 2.588C10.7973 2.588 10.8863 2.57002 10.9692 2.53511C11.0522 2.50021 11.1273 2.44908 11.1902 2.38473C11.2588 2.32254 11.3141 2.24706 11.3527 2.16285C11.3912 2.07865 11.4123 1.98749 11.4146 1.8949C11.4169 1.80231 11.4003 1.71022 11.3659 1.62422C11.3315 1.53822 11.28 1.4601 11.2145 1.39461C11.149 1.32912 11.0709 1.27762 10.9849 1.24323C10.8989 1.20884 10.8068 1.19229 10.7142 1.19456C10.6217 1.19684 10.5305 1.21791 10.4463 1.25649ZM7.88726 2.00513C7.72747 1.95399 7.55401 1.96755 7.4041 2.04288H7.4212C7.27209 2.1227 7.16057 2.25822 7.11094 2.4199C7.06132 2.58159 7.0776 2.75633 7.15626 2.90606C7.43788 3.45302 7.8042 3.95202 8.24165 4.38459C8.66858 4.81508 9.15847 5.17818 9.69454 5.46143C9.84444 5.53676 10.0179 5.55031 10.1777 5.49918C10.3375 5.44805 10.4708 5.33631 10.5492 5.18795C10.6252 5.03907 10.64 4.8664 10.5905 4.70675C10.541 4.5471 10.4311 4.4131 10.2842 4.33331C9.85083 4.11275 9.45554 3.82422 9.11338 3.47867C8.77258 3.13563 8.48457 2.74393 8.25874 2.31636C8.18042 2.168 8.04705 2.05626 7.88726 2.00513ZM11.3269 7.94843C13.7626 5.50416 16.9761 4.49569 19.54 5.08539C20.1211 7.64931 19.1127 10.8713 16.6684 13.3156C15.3267 14.6831 13.6312 15.6507 11.7713 16.1102H11.7115L11.2585 16.1957C10.5694 16.3488 9.93448 16.6855 9.42106 17.17C9.06776 17.4869 8.84048 17.9206 8.78084 18.3914C8.7212 18.8623 8.83318 19.3389 9.09629 19.7339C9.11157 19.7743 9.11312 19.8186 9.10069 19.86C9.08826 19.9014 9.06254 19.9375 9.02752 19.9628C8.9925 19.9881 8.95012 20.0011 8.90694 19.9999C8.86376 19.9987 8.82218 19.9833 8.78862 19.9561L6.74604 17.905L4.70345 15.8538C4.66735 15.8237 4.64384 15.7812 4.63755 15.7346C4.63125 15.6881 4.64263 15.6408 4.66944 15.6022C4.69625 15.5636 4.73654 15.5364 4.78239 15.5261C4.82823 15.5157 4.87629 15.5229 4.91711 15.5462C5.31155 15.811 5.78858 15.9241 6.25994 15.8644C6.7313 15.8047 7.16508 15.5763 7.48103 15.2214C7.95764 14.706 8.2855 14.071 8.42967 13.3839C8.43861 13.3333 8.45171 13.2816 8.46497 13.2292C8.48976 13.1314 8.51514 13.0312 8.51514 12.931C8.5168 12.9111 8.5168 12.8911 8.51514 12.8712C8.97765 11.0012 9.95119 9.29677 11.3269 7.94843ZM17.2379 6.45163C17.0803 6.4833 16.9356 6.56105 16.8222 6.67502C16.6709 6.82716 16.5859 7.03303 16.5859 7.24763C16.5859 7.46222 16.6709 7.6681 16.8222 7.82023C16.9356 7.93421 17.0803 8.01195 17.2379 8.04362C17.3955 8.07529 17.559 8.05946 17.7076 7.99814C17.8562 7.93681 17.9832 7.83275 18.0726 7.69914C18.162 7.56553 18.2097 7.40839 18.2097 7.24763C18.2097 7.08687 18.162 6.92972 18.0726 6.79612C17.9832 6.66251 17.8562 6.55845 17.7076 6.49712C17.559 6.43579 17.3955 6.41996 17.2379 6.45163ZM14.5489 10.1021C15.0507 10.6109 15.6271 11.0402 16.2582 11.3755V11.3499C16.3332 11.3934 16.4162 11.4213 16.5023 11.4317C16.5884 11.4422 16.6757 11.4351 16.759 11.4109C16.8422 11.3867 16.9197 11.3458 16.9867 11.2907C17.0537 11.2357 17.1089 11.1676 17.1488 11.0907C17.1887 11.0137 17.2126 10.9294 17.2191 10.8429C17.2255 10.7564 17.2143 10.6696 17.1861 10.5875C17.158 10.5055 17.1135 10.43 17.0554 10.3657C16.9972 10.3014 16.9266 10.2495 16.8479 10.2132C15.8151 9.66798 14.9696 8.82546 14.4207 7.7946C14.3814 7.71996 14.3278 7.65379 14.263 7.59987C14.1981 7.54595 14.1233 7.50533 14.0427 7.48033C13.9622 7.45533 13.8775 7.44645 13.7935 7.45418C13.7095 7.46191 13.6279 7.4861 13.5532 7.52538C13.4786 7.56467 13.4124 7.61826 13.3585 7.68312C13.3046 7.74797 13.264 7.82281 13.239 7.90336C13.214 7.98391 13.2051 8.06859 13.2128 8.15258C13.2205 8.23657 13.2447 8.31821 13.284 8.39284C13.6178 9.02264 14.0442 9.59881 14.5489 10.1021Z" fill="#615c5a"/>
</g>
<defs>
<clipPath id="clip0_1114_1109">
<rect width="20" height="20" fill="transparent"/>
</clipPath>
</defs>
</svg>
