<svg width="20" height="20" viewBox="0 0 20 20" fill="none" xmlns="http://www.w3.org/2000/svg">
<g clip-path="url(#clip0_1114_1105)">
<path fill-rule="evenodd" clip-rule="evenodd" d="M12.8842 1.20579H5.56913C5.40924 1.20579 5.25589 1.14227 5.14282 1.0292C5.02976 0.91614 4.96624 0.762791 4.96624 0.602894C4.96624 0.442997 5.02976 0.289648 5.14282 0.176584C5.25589 0.063519 5.40924 0 5.56913 0H12.8842C13.0441 0 13.1975 0.063519 13.3106 0.176584C13.4236 0.289648 13.4871 0.442997 13.4871 0.602894C13.4871 0.762791 13.4236 0.91614 13.3106 1.0292C13.1975 1.14227 13.0441 1.20579 12.8842 1.20579ZM11.59 17.1704C11.6013 16.2294 11.7503 15.295 12.0322 14.3971C12.276 13.4804 12.7427 12.6382 13.3907 11.9453C13.8158 11.5118 14.3915 11.2584 14.9984 11.2379C15.5468 11.2499 16.0733 11.4549 16.4855 11.8167V6.01286L13.5273 2.26688H4.94212L2 6.01286V20H13.0852C12.6249 19.6853 12.2482 19.2632 11.9877 18.7701C11.7272 18.2771 11.5907 17.728 11.59 17.1704ZM10.6254 12.2749C10.4662 12.2728 10.314 12.2087 10.2014 12.096C10.0888 11.9834 10.0246 11.8313 10.0225 11.672V6.6238H5.21543C5.05554 6.6238 4.90219 6.56028 4.78912 6.44721C4.67606 6.33415 4.61254 6.1808 4.61254 6.0209C4.61254 5.86101 4.67606 5.70766 4.78912 5.59459C4.90219 5.48153 5.05554 5.41801 5.21543 5.41801H13.2058C13.3657 5.41801 13.519 5.48153 13.6321 5.59459C13.7452 5.70766 13.8087 5.86101 13.8087 6.0209C13.8087 6.1808 13.7452 6.33415 13.6321 6.44721C13.519 6.56028 13.3657 6.6238 13.2058 6.6238H11.2283V11.672C11.2262 11.8313 11.162 11.9834 11.0494 12.096C10.9368 12.2087 10.7847 12.2728 10.6254 12.2749ZM15.0225 19.3971C15.6147 19.3951 16.1823 19.1606 16.6033 18.7441C17.0243 18.3276 17.2649 17.7625 17.2733 17.1704C17.2622 16.3521 17.1322 15.5398 16.8875 14.7588C16.7913 14.4417 16.6704 14.1326 16.5257 13.8344C16.3566 13.4607 16.1256 13.1183 15.8424 12.8215C15.7436 12.7047 15.6205 12.6109 15.4816 12.5465C15.3428 12.4821 15.1916 12.4487 15.0386 12.4487C14.8856 12.4487 14.7344 12.4821 14.5955 12.5465C14.4567 12.6109 14.3336 12.7047 14.2347 12.8215C13.9151 13.1587 13.6591 13.5508 13.4791 13.9791C13.0493 14.9975 12.82 16.0893 12.8039 17.1945C12.8102 17.7795 13.0465 18.3385 13.4617 18.7507C13.8768 19.1628 14.4375 19.395 15.0225 19.3971Z" fill="#615c5a"/>
</g>
<defs>
<clipPath id="clip0_1114_1105">
<rect width="20" height="20" fill="transparent"/>
</clipPath>
</defs>
</svg>
