<svg width="20" height="20" viewBox="0 0 20 20" fill="none" xmlns="http://www.w3.org/2000/svg">
<g clip-path="url(#clip0_1114_1184)">
<path d="M5.45454 9.09091H-7.62939e-06V10.9091H5.45454V9.09091ZM7.42727 6.14545L5.49999 4.21818L4.21817 5.5L6.14545 7.42727L7.42727 6.14545ZM10.9091 0H9.0909V5.45455H10.9091V0ZM15.7818 5.5L14.5 4.21818L12.5727 6.14545L13.8545 7.42727L15.7818 5.5ZM14.5454 9.09091V10.9091H20V9.09091H14.5454ZM9.99999 7.27273C8.4909 7.27273 7.27272 8.49091 7.27272 10C7.27272 11.5091 8.4909 12.7273 9.99999 12.7273C11.5091 12.7273 12.7273 11.5091 12.7273 10C12.7273 8.49091 11.5091 7.27273 9.99999 7.27273ZM12.5727 13.8545L14.5 15.7818L15.7818 14.5L13.8545 12.5727L12.5727 13.8545V13.8545ZM4.21817 14.5L5.49999 15.7818L7.42727 13.8545L6.14545 12.5727L4.21817 14.5V14.5ZM9.0909 20H10.9091V14.5455H9.0909V20Z" fill="#615c5a"/>
</g>
<defs>
<clipPath id="clip0_1114_1184">
<rect width="20" height="20" fill="transparent"/>
</clipPath>
</defs>
</svg>
