<svg width="20" height="20" viewBox="0 0 20 20" fill="none" xmlns="http://www.w3.org/2000/svg">
<g clip-path="url(#clip0_1114_1108)">
<path fill-rule="evenodd" clip-rule="evenodd" d="M15.0592 0.0258525C13.8451 -0.126888 13.2504 0.410149 12.2718 1.29384C11.0724 2.37699 9.2962 3.98093 5.09589 5.47384C-2.53129 8.18475 -0.700765 18.209 4.72107 19.6212C10.3172 21.0769 15.434 18.2701 18.3803 12.3601C21.3265 6.45011 17.7701 0.426824 15.0592 0.0258525ZM16.8025 11.5581C14.6756 15.8817 11.3284 18.2526 7.56274 18.2526C6.75082 18.2491 5.94256 18.1437 5.15691 17.9388C3.21307 17.4594 1.73993 15.1059 1.73993 12.5344C1.71634 11.3249 2.08844 10.1407 2.79964 9.16201C3.51083 8.18334 4.52219 7.46371 5.67991 7.11259C8.55782 6.21005 11.2009 4.68313 13.4204 2.64088C14.2136 1.93483 14.4054 1.76921 14.632 1.76921H14.8151C15.6868 1.89124 17.7439 4.25349 17.7439 7.70533C17.7463 9.0531 17.4296 10.3823 16.82 11.5843L16.8025 11.5581ZM6.56902 8.17604C9.44147 7.20734 12.0764 5.6418 14.3008 3.5823L14.7366 3.19876C15.3127 3.79956 15.7635 4.50894 16.0628 5.28562C16.3621 6.0623 16.5039 6.89076 16.48 7.72276C16.4752 8.86222 16.2035 9.9847 15.6868 11.0003C15.4281 11.5123 15.137 12.0073 14.8151 12.4821C14.3321 12.7807 13.7788 12.9461 13.2112 12.9615C12.52 12.9317 11.8581 12.6743 11.3284 12.2293C10.5237 11.5434 9.76656 10.8037 9.06202 10.0153L8.59132 9.55329C8.00365 8.97861 7.31902 8.51235 6.56902 8.17604ZM12.7546 9.16625C13.0011 9.32937 13.2905 9.41554 13.586 9.41382C13.9783 9.41153 14.3539 9.25467 14.6313 8.97727C14.9087 8.69986 15.0656 8.32427 15.0679 7.93197C15.0696 7.63643 14.9834 7.34704 14.8203 7.10059C14.6572 6.85413 14.4245 6.66174 14.1518 6.54784C13.879 6.43394 13.5786 6.40369 13.2887 6.46093C12.9987 6.51816 12.7323 6.6603 12.5233 6.86929C12.3144 7.07827 12.1722 7.34466 12.115 7.63461C12.0577 7.92456 12.088 8.22499 12.2019 8.4977C12.3158 8.77042 12.5082 9.00313 12.7546 9.16625ZM10.0034 11.9068C10.4444 12.363 10.939 12.764 11.4766 13.101C12.0027 13.4198 12.6048 13.5914 13.2199 13.5979C13.515 13.593 13.8081 13.549 14.0916 13.4671C13.3498 14.5163 12.3733 15.3779 11.2399 15.9832C10.1064 16.5886 8.84728 16.9209 7.56274 16.9538C7.04109 16.9465 6.52141 16.8882 6.01115 16.7795C6.05396 16.204 6.21415 15.6433 6.48186 15.132C6.96505 14.1843 7.51562 13.2725 8.12933 12.4037C8.40826 11.9853 8.66105 11.6017 8.85282 11.2705C8.92255 11.1397 8.97485 11.0351 9.02715 10.9218C9.34968 11.2531 9.6722 11.5843 10.0034 11.9068ZM7.52601 12.1213C7.26317 12.5132 6.97666 12.9404 6.69977 13.38C6.01112 14.3426 5.55737 15.4531 5.37482 16.6226C4.05859 16.1955 3.04745 14.4347 3.04745 12.5344C3.02434 11.6919 3.25568 10.862 3.71127 10.153C4.16686 9.44396 4.82557 8.88867 5.60146 8.55958C6.16844 8.6756 6.70548 8.90703 7.1792 9.23948C7.66306 9.58853 8.11783 9.97625 8.53901 10.3988C8.51543 10.4888 8.48333 10.5764 8.44313 10.6603C8.26969 11.0124 7.92513 11.5262 7.52601 12.1213Z" fill="#615c5a"/>
</g>
<defs>
<clipPath id="clip0_1114_1108">
<rect width="20" height="20" fill="transparent"/>
</clipPath>
</defs>
</svg>
