<svg xmlns="http://www.w3.org/2000/svg" viewBox="0 0 15.39 23.48"><g id="Layer_2" data-name="Layer 2"><g id="Layer_1-2" data-name="Layer 1"><path class="cls-1" d="M9.75,22a1.5,1.5,0,0,1-1.5,1.5H7.14A1.5,1.5,0,0,1,5.64,22V20.87a1.5,1.5,0,0,1,1.5-1.5H8.25a1.5,1.5,0,0,1,1.5,1.5Zm.16-8.35a1,1,0,0,0-.61.88v2.4l-.17.17H6.26l-.17-.17V14.24A3.44,3.44,0,0,1,8.52,11c3.25-1.35,3.69-2.53,3.69-4.06,0-1.92-1.59-4.06-4.74-4.06-2.7,0-4.26,1.73-4.26,3.66v.34L3,7H.17L0,6.87V6.53C0,2.71,3.08,0,7.47,0c4.88,0,7.92,3.11,7.92,6.93S12.92,12.11,9.91,13.63Z" fill="#AAA29A"/></g></g></svg>
