<svg width="20" height="20" viewBox="0 0 20 20" fill="none" xmlns="http://www.w3.org/2000/svg">
<path fill-rule="evenodd" clip-rule="evenodd" d="M19.9834 7.99502C20.3032 4.71774 15.707 2 10.0017 2C4.29645 2 -0.299732 4.71774 0.0200027 7.99502H19.9834ZM3.34722 11.4921C3.8914 11.4921 4.12206 11.6293 4.48548 11.8454L4.49627 11.8518C4.9459 12.1216 5.56538 12.4913 6.67446 12.4913C7.78354 12.4913 8.40303 12.1216 8.85265 11.8518C9.22235 11.622 9.44217 11.4921 10.0017 11.4921C10.5459 11.4921 10.7765 11.6293 11.14 11.8454L11.1507 11.8518C11.6004 12.1216 12.2199 12.4913 13.3289 12.4913C14.438 12.4913 15.0575 12.1216 15.5071 11.8518C15.8768 11.622 16.0966 11.4921 16.6562 11.4921C17.2004 11.4921 17.431 11.6293 17.7944 11.8454L17.8052 11.8518C18.2549 12.1216 18.8743 12.4813 19.9734 12.4913V10.5129C19.9734 10.5129 19.1841 10.3531 18.8144 10.1333C18.3648 9.86348 17.7453 9.49378 16.6362 9.49378C15.5271 9.49378 14.9076 9.86348 14.458 10.1333C14.0883 10.3631 13.8585 10.493 13.309 10.493C12.7648 10.493 12.5341 10.3558 12.1707 10.1397L12.1599 10.1333C11.7103 9.86348 11.0908 9.49378 9.98172 9.49378C8.87264 9.49378 8.25315 9.86348 7.80353 10.1333C7.43383 10.3631 7.21401 10.493 6.65448 10.493C6.1103 10.493 5.87964 10.3558 5.51622 10.1397L5.50543 10.1333C5.05581 9.86348 4.43632 9.49378 3.32724 9.49378C2.21816 9.49378 1.59867 9.86348 1.14905 10.1333C0.779353 10.3631 0.559536 10.493 0 10.493V12.4913C1.07409 12.4913 1.68899 12.1446 2.16234 11.8776L2.20817 11.8518C2.57786 11.622 2.79768 11.4921 3.34722 11.4921ZM0 15.9884V13.9901H19.9834V15.9884C19.9834 17.0875 19.0842 17.9867 17.9851 17.9867H1.99834C0.899254 17.9867 0 17.0875 0 15.9884Z" fill="#615c5a"/>
</svg>
