<svg width="20" height="20" viewBox="0 0 20 20" fill="none" xmlns="http://www.w3.org/2000/svg">
<g clip-path="url(#clip0_1114_1113)">
<path d="M19.5979 16.1999L10.9998 9.75137V8.84157C12.6494 8.35168 13.7992 6.67205 13.4292 4.79247C13.1693 3.48276 12.1295 2.393 10.8198 2.09307C8.54032 1.57318 6.50077 3.3028 6.50077 5.50231H8.50033C8.50033 4.6725 9.17018 4.00264 10 4.00264C10.8298 4.00264 11.4997 4.6725 11.4997 5.50231C11.4997 6.34213 10.8098 7.02198 9.97 7.00198C9.43012 6.99198 9.00022 7.45188 9.00022 7.99176V9.75137L0.40212 16.1999C-0.36771 16.7798 0.0421994 17.9995 1.00199 17.9995H10H18.998C19.9578 17.9995 20.3677 16.7798 19.5979 16.1999ZM4.00132 16L10 11.501L15.9987 16H4.00132Z" fill="#615c5a"/>
</g>
<defs>
<clipPath id="clip0_1114_1113">
<rect width="20" height="20" fill="transparent"/>
</clipPath>
</defs>
</svg>
