<svg width="20" height="20" viewBox="0 0 20 20" fill="none" xmlns="http://www.w3.org/2000/svg">
<g clip-path="url(#clip0_1114_1118)">
<path d="M12 0V8H20C20 3.58 16.42 0 12 0ZM18.32 13.89C19.37 12.54 20 10.84 20 9H5.43998L4.48998 7H0.999985V9H3.21998C3.21998 9 5.10998 13.07 5.33998 13.42C4.23998 14.01 3.49998 15.17 3.49998 16.5C3.49998 18.43 5.06998 20 6.99998 20C8.75998 20 10.22 18.7 10.46 17H12.54C12.78 18.7 14.24 20 16 20C17.93 20 19.5 18.43 19.5 16.5C19.5 15.46 19.04 14.53 18.32 13.89ZM6.99998 18C6.16998 18 5.49998 17.33 5.49998 16.5C5.49998 15.67 6.16998 15 6.99998 15C7.82998 15 8.49998 15.67 8.49998 16.5C8.49998 17.33 7.82998 18 6.99998 18ZM16 18C15.17 18 14.5 17.33 14.5 16.5C14.5 15.67 15.17 15 16 15C16.83 15 17.5 15.67 17.5 16.5C17.5 17.33 16.83 18 16 18Z" fill="#615c5a"/>
</g>
<defs>
<clipPath id="clip0_1114_1118">
<rect width="20" height="20" fill="transparent"/>
</clipPath>
</defs>
</svg>
